<svg width="177" height="86" viewBox="0 0 177 86" fill="none" xmlns="http://www.w3.org/2000/svg">
<path d="M176.952 0.823242H46.0921V4.25179H176.952V0.823242Z" fill="white"/>
<path d="M176.717 59.8008H173.608L172.032 62.2284L168.327 67.9143L166.751 70.342L168.327 72.7696L172.032 78.4768L173.608 80.9044H176.717L169.903 70.342L176.717 59.8008Z" fill="white"/>
<path d="M164.664 59.8008H162.024V80.9044H164.664V59.8008Z" fill="white"/>
<path d="M168.923 69.0215H164.664V71.6621H168.923V69.0215Z" fill="white"/>
<path d="M125.076 71.7049L128.143 63.3571L126.822 59.8008L118.837 80.9044H121.712L124.118 74.3455H124.097L125.076 71.7049Z" fill="white"/>
<path d="M129.442 59.8008H126.822L128.143 63.3571L129.442 59.8008Z" fill="white"/>
<path d="M125.076 71.7041L124.118 74.3447H132.231L131.315 72.0235L131.209 71.7041H125.076Z" fill="white"/>
<path d="M125.076 71.7041L124.096 74.3447H124.118L125.076 71.7041Z" fill="white"/>
<path d="M137.427 80.8831L129.442 59.8008L128.143 63.3571L131.209 71.7049L131.316 72.0243L134.574 80.8831H137.427Z" fill="white"/>
<path d="M131.209 71.7041L131.315 72.0225L131.209 71.7041Z" fill="white"/>
<path d="M54.738 71.6613C55.6134 71.6613 56.453 72.0091 57.072 72.6281C57.691 73.2471 58.0388 74.0867 58.0388 74.9621C58.0388 75.8375 57.691 76.6771 57.072 77.2961C56.453 77.9151 55.6134 78.2629 54.738 78.2629H48.8179V71.6613H54.7593H54.738ZM48.8179 62.4192H53.6945C54.5699 62.4192 55.4095 62.7669 56.0285 63.3859C56.6475 64.005 56.9953 64.8445 56.9953 65.7199C56.9953 66.5954 56.6475 67.4349 56.0285 68.0539C55.4095 68.673 54.5699 69.0207 53.6945 69.0207H48.8179V62.4192ZM57.8897 69.9151C58.7221 69.0804 59.2874 68.0169 59.5136 66.86C59.7399 65.7031 59.6169 64.505 59.1602 63.4182C58.7036 62.3314 57.934 61.405 56.9493 60.7569C55.9646 60.1088 54.8094 59.7682 53.6306 59.7785H46.1773V80.8822H54.6954C56.2677 80.871 57.7724 80.2415 58.8843 79.1297C59.9961 78.0179 60.6256 76.5131 60.6368 74.9408C60.6369 73.9351 60.3809 72.946 59.8928 72.0667C59.4047 71.1874 58.7007 70.4469 57.8471 69.9151" fill="white"/>
<path d="M83.9125 59.8008H81.2719V80.9044H83.9125V59.8008Z" fill="white"/>
<path d="M90.0454 59.8008H75.3303V62.4414H90.0454V59.8008Z" fill="white"/>
<path d="M69.5593 59.8008H66.9187V80.9044H69.5593V59.8008Z" fill="white"/>
<path d="M145.03 59.8008H142.389V80.9044H145.03V71.6836V59.8008ZM144.093 71.6836H148.97C150.525 71.6727 152.015 71.0542 153.121 69.9601C154.227 68.866 154.862 67.3829 154.89 65.8274H152.249C152.249 66.7028 151.901 67.5423 151.282 68.1614C150.663 68.7804 149.824 69.1281 148.948 69.1281H144.072L144.093 71.6836ZM144.093 62.4414H148.97C149.408 62.4441 149.842 62.5343 150.246 62.7067C150.65 62.8792 151.015 63.1304 151.32 63.4457C151.626 63.761 151.865 64.134 152.025 64.543C152.184 64.9519 152.26 65.3886 152.249 65.8274H154.89C154.884 64.2533 154.256 62.7454 153.143 61.6324C152.03 60.5193 150.522 59.8916 148.948 59.886H144.072L144.093 62.4414Z" fill="white"/>
<path d="M150.588 70.8525L147.99 71.6618L148.693 72.7691L152.398 78.4763L153.974 80.9039H157.083L150.588 70.8525Z" fill="white"/>
<path d="M104.569 74.8566L111.256 64.6135V80.8831H113.897V59.8008H111.299L104.569 70.0864L97.9251 59.8008H95.2844V80.8831H97.9251V64.6561L104.569 74.8566Z" fill="white"/>
<path d="M15.725 83.2464C13.1721 83.2296 10.6814 82.4572 8.56689 81.0266C6.45242 79.5961 4.80889 77.5715 3.84358 75.2081C2.87827 72.8447 2.63441 70.2484 3.14275 67.7465C3.65109 65.2447 4.88887 62.9495 6.69998 61.1502C8.5111 59.351 10.8144 58.1283 13.3195 57.6364C15.8246 57.1445 18.4193 57.4054 20.7763 58.3862C23.1333 59.367 25.1471 61.0238 26.5637 63.1476C27.9803 65.2715 28.7363 67.7672 28.7364 70.3201C28.7308 72.0232 28.3898 73.7086 27.7329 75.2799C27.076 76.8512 26.1161 78.2777 24.9078 79.478C23.6996 80.6784 22.2668 81.6289 20.6912 82.2755C19.1156 82.9221 17.4281 83.252 15.725 83.2464V83.2464ZM15.725 55.5625C12.7767 55.5625 9.89464 56.4368 7.44325 58.0747C4.99185 59.7127 3.08122 62.0408 1.95297 64.7647C0.824711 67.4885 0.529509 70.4857 1.10469 73.3774C1.67987 76.269 3.09959 78.9251 5.18433 81.0099C7.26908 83.0946 9.9252 84.5143 12.8168 85.0895C15.7084 85.6647 18.7057 85.3695 21.4295 84.2412C24.1534 83.113 26.4815 81.2023 28.1195 78.7509C29.7574 76.2995 30.6317 73.4175 30.6317 70.4692C30.6317 66.5157 29.0612 62.7241 26.2656 59.9286C23.4701 57.133 19.6785 55.5625 15.725 55.5625Z" fill="white"/>
<path d="M17.6198 75.9212H13.3608V74.3454H16.0227V72.7269H13.4459V71.2149H17.705C18.2795 71.2702 18.8129 71.5374 19.201 71.9646C19.5891 72.3918 19.8041 72.9483 19.8041 73.5255C19.8041 74.1027 19.5891 74.6591 19.201 75.0863C18.8129 75.5135 18.2795 75.7808 17.705 75.836L17.6198 75.9212ZM13.4459 64.7199H16.8745C17.449 64.7751 17.9824 65.0424 18.3705 65.4696C18.7586 65.8968 18.9736 66.4532 18.9736 67.0304C18.9736 67.6076 18.7586 68.1641 18.3705 68.5913C17.9824 69.0185 17.449 69.2857 16.8745 69.341H13.4459V64.7199ZM19.8345 69.9798C20.3755 69.3825 20.736 68.644 20.874 67.85C21.012 67.056 20.9219 66.2391 20.6141 65.4943C20.3064 64.7495 19.7936 64.1072 19.1354 63.6422C18.4772 63.1772 17.7006 62.9084 16.8958 62.8672H11.5933V72.7269H9.1017V74.3454H11.5933V77.7526H17.6198C18.7494 77.7526 19.8327 77.3039 20.6314 76.5052C21.4302 75.7064 21.8789 74.6231 21.8789 73.4935C21.8385 72.8002 21.6291 72.1273 21.2691 71.5335C20.909 70.9396 20.4092 70.4428 19.8132 70.0863" fill="white"/>
</svg>
